<?xml version="1.0" encoding="utf-8"?>
<!-- Generator: Adobe Illustrator 16.0.0, SVG Export Plug-In . SVG Version: 6.00 Build 0)  -->
<!DOCTYPE svg PUBLIC "-//W3C//DTD SVG 1.1//EN" "http://www.w3.org/Graphics/SVG/1.1/DTD/svg11.dtd">
<svg version="1.1" id="Layer_1" xmlns="http://www.w3.org/2000/svg" xmlns:xlink="http://www.w3.org/1999/xlink" x="0px" y="0px" viewBox="0 0 224 224" enable-background="new 0 0 224 224" xml:space="preserve">
<circle fill="none" stroke="#FFFFFF" stroke-width="4" stroke-miterlimit="10" cx="112" cy="112" r="105"/>
<g>
	<path fill="#FFFFFF" d="M22.274,114.177c0.015-0.06,0.048-0.086,0.101-0.078c0.052,0.007,0.101,0.003,0.146-0.012
		c-0.12-0.12-0.195-0.281-0.225-0.482c-0.03-0.203-0.105-0.371-0.225-0.506c0.03-0.075,0.056-0.149,0.079-0.225
		s0.086-0.104,0.191-0.09c-0.045-0.329-0.038-0.637,0.022-0.921c0.06-0.284,0.153-0.554,0.281-0.809
		c0.127-0.255,0.277-0.505,0.449-0.753c0.172-0.246,0.34-0.497,0.505-0.752c0.135-0.03,0.217-0.019,0.247,0.033
		c0.03,0.053,0.082,0.042,0.157-0.033c0.239-0.165,0.404-0.348,0.494-0.551c0.09-0.201,0.135-0.423,0.135-0.662
		c0.135-0.39,0.288-0.775,0.46-1.156c0.172-0.383,0.371-0.738,0.595-1.067s0.464-0.618,0.719-0.864
		c0.254-0.248,0.531-0.438,0.831-0.573c0.209-0.18,0.475-0.345,0.797-0.494c0.322-0.149,0.666-0.266,1.033-0.349
		c0.367-0.082,0.745-0.127,1.134-0.135c0.389-0.007,0.749,0.034,1.078,0.124c0.075,0.03,0.12,0.011,0.135-0.056
		c0.015-0.068,0.052-0.102,0.112-0.102c0.749,0.09,1.418,0.239,2.01,0.449c0.591,0.21,1.097,0.502,1.516,0.876
		c0.284,0.449,0.554,0.933,0.809,1.448c0.254,0.518,0.453,1.057,0.595,1.617c0.142,0.563,0.206,1.143,0.191,1.741
		c-0.015,0.599-0.143,1.198-0.382,1.797c-0.524,0.659-1.161,1.187-1.909,1.583c-0.749,0.397-1.554,0.727-2.415,0.988
		c-0.861,0.263-1.752,0.476-2.673,0.641s-1.816,0.345-2.684,0.539c0.015,0.404,0.015,0.835,0,1.291
		c-0.015,0.457-0.064,0.914-0.146,1.371c-0.083,0.456-0.202,0.901-0.359,1.336s-0.371,0.839-0.64,1.213
		c-0.3-0.015-0.61,0.015-0.932,0.09c-0.322,0.075-0.61,0.149-0.865,0.225c-0.12-0.075-0.236-0.146-0.348-0.213
		c-0.112-0.068-0.251-0.109-0.416-0.124c0.045-0.18,0.003-0.367-0.124-0.562c-0.127-0.194-0.255-0.386-0.382-0.572
		c-0.127-0.188-0.21-0.375-0.247-0.563c-0.038-0.187,0.048-0.355,0.258-0.505c-0.12-0.104-0.18-0.27-0.18-0.494
		c0.06,0.06,0.135,0.09,0.225,0.09c-0.03-0.27,0.003-0.592,0.101-0.966c0.097-0.374,0.18-0.745,0.247-1.111
		c0.067-0.367,0.079-0.704,0.034-1.012C22.769,114.533,22.589,114.312,22.274,114.177z M28.114,108.921
		c-0.06,0.165-0.109,0.311-0.146,0.438c-0.038,0.128-0.079,0.244-0.124,0.349s-0.094,0.21-0.146,0.314
		c-0.053,0.104-0.109,0.225-0.168,0.359c0.03,0.09,0.09,0.157,0.18,0.202s0.149,0.112,0.18,0.202
		c0.209-0.104,0.419-0.184,0.629-0.235c0.209-0.053,0.419-0.094,0.629-0.124c0.209-0.03,0.419-0.067,0.629-0.112
		c0.209-0.045,0.427-0.12,0.651-0.225s0.46-0.191,0.708-0.258c0.247-0.068,0.49-0.139,0.73-0.214
		c0.239-0.075,0.472-0.161,0.696-0.259c0.225-0.097,0.419-0.228,0.584-0.393c-0.21-0.194-0.524-0.367-0.943-0.517
		c-0.419-0.149-0.873-0.243-1.359-0.28c-0.487-0.038-0.974-0.004-1.46,0.101C28.896,108.375,28.474,108.592,28.114,108.921z"/>
	<path fill="#FFFFFF" d="M36.313,119.748c-0.045,0.015-0.075,0-0.09-0.045c-0.015-0.045-0.019-0.09-0.011-0.135
		c0.007-0.045,0.03-0.082,0.067-0.112c0.037-0.03,0.086-0.03,0.146,0c-0.195-0.239-0.318-0.457-0.371-0.651
		c-0.053-0.194-0.153-0.435-0.303-0.719c0.045-0.045,0.075-0.108,0.09-0.191c0.015-0.082,0.034-0.16,0.056-0.235
		s0.053-0.131,0.09-0.169c0.037-0.037,0.086-0.025,0.146,0.034c-0.03-0.165-0.03-0.3,0-0.404c0.03-0.104,0.063-0.202,0.101-0.292
		c0.037-0.09,0.063-0.18,0.079-0.27c0.015-0.09-0.008-0.194-0.067-0.314c0.284-0.39,0.472-0.813,0.562-1.27
		c0.09-0.456,0.142-0.872,0.157-1.246c0.135-0.135,0.25-0.314,0.348-0.539c0.097-0.225,0.168-0.457,0.213-0.696
		s0.067-0.476,0.067-0.708c0-0.231-0.03-0.415-0.09-0.55c0.015-0.06,0.048-0.094,0.101-0.101c0.052-0.008,0.116-0.004,0.191,0.011
		c0.104-0.599,0.176-1.266,0.213-1.999c0.037-0.733,0.112-1.441,0.225-2.123c0.112-0.681,0.295-1.279,0.55-1.797
		c0.254-0.516,0.659-0.85,1.213-0.999c0.104,0.374,0.243,0.704,0.416,0.988c0.172,0.284,0.359,0.562,0.562,0.831
		s0.408,0.539,0.618,0.809c0.209,0.27,0.404,0.569,0.584,0.898c-0.015,0.345-0.049,0.741-0.101,1.19
		c-0.053,0.449-0.12,0.906-0.202,1.37c-0.083,0.464-0.165,0.913-0.247,1.348c-0.083,0.435-0.161,0.801-0.236,1.101
		c0.015,0.075,0.067,0.124,0.157,0.146c0.09,0.023,0.104,0.109,0.045,0.259c0.434-0.104,0.887-0.206,1.359-0.304
		c0.472-0.097,0.936-0.194,1.393-0.291c0.457-0.098,0.906-0.214,1.348-0.349c0.441-0.135,0.857-0.3,1.247-0.494
		c0.09-0.719,0.202-1.43,0.337-2.134s0.149-1.415,0.045-2.134c0.09-0.075,0.165-0.165,0.225-0.27c0.06-0.104,0.149-0.172,0.27-0.202
		c-0.09-0.345-0.127-0.707-0.112-1.09c0.015-0.381,0.079-0.737,0.191-1.066s0.281-0.617,0.505-0.865
		c0.225-0.246,0.501-0.407,0.831-0.482c0.194,0.284,0.367,0.592,0.517,0.921c0.149,0.329,0.299,0.663,0.449,0.999
		c0.149,0.338,0.311,0.655,0.483,0.955c0.172,0.3,0.393,0.554,0.663,0.764c0.045,0.524,0.082,1.06,0.112,1.605
		c0.03,0.547,0.052,1.112,0.067,1.696c-0.135,0.674-0.289,1.329-0.46,1.966c-0.172,0.636-0.296,1.313-0.371,2.032
		c-0.12,0.135-0.217,0.296-0.292,0.483c-0.075,0.187-0.146,0.374-0.213,0.561c-0.067,0.188-0.146,0.371-0.236,0.551
		s-0.202,0.329-0.337,0.449c0.06,0.21,0.071,0.408,0.034,0.596c-0.038,0.187,0.011,0.407,0.146,0.662
		c0.03,0.464-0.026,0.85-0.168,1.156c-0.143,0.308-0.337,0.569-0.584,0.787c-0.247,0.217-0.532,0.389-0.854,0.516
		c-0.322,0.128-0.64,0.244-0.955,0.349c-0.15-0.09-0.289-0.184-0.416-0.28c-0.127-0.098-0.281-0.169-0.46-0.214l0.112-0.202
		c-0.3-0.3-0.558-0.617-0.775-0.955c-0.217-0.336-0.318-0.722-0.303-1.156c0-0.015,0.015-0.116,0.045-0.303
		c0.03-0.188,0.063-0.386,0.101-0.596c0.037-0.21,0.075-0.408,0.112-0.596c0.037-0.187,0.056-0.288,0.056-0.303
		c-0.419,0.045-0.854,0.143-1.303,0.292s-0.887,0.318-1.314,0.505c-0.427,0.188-0.824,0.383-1.19,0.584
		c-0.367,0.203-0.663,0.371-0.887,0.506c0,0.045-0.038,0.172-0.112,0.382c-0.075,0.21-0.165,0.431-0.27,0.663
		c-0.105,0.231-0.221,0.438-0.348,0.617c-0.127,0.18-0.258,0.262-0.393,0.247c0.03,0.075,0.06,0.131,0.09,0.169
		c0.03,0.037,0.03,0.108,0,0.213c-0.255,0.075-0.483,0.172-0.685,0.292s-0.408,0.221-0.618,0.304
		c-0.21,0.082-0.438,0.119-0.685,0.111c-0.247-0.007-0.543-0.101-0.887-0.28c0-0.104-0.045-0.198-0.135-0.28
		c-0.09-0.083-0.184-0.154-0.281-0.214c-0.098-0.06-0.184-0.112-0.258-0.157C36.35,119.837,36.313,119.792,36.313,119.748z"/>
	<path fill="#FFFFFF" d="M51.384,118.377l0.292-0.225l0.022-0.472c0.374-0.913,0.76-1.789,1.157-2.628
		c0.396-0.839,0.812-1.699,1.247-2.583c0.135-0.284,0.273-0.569,0.416-0.854c0.142-0.284,0.281-0.576,0.416-0.876
		c-0.015-0.06-0.022-0.124-0.022-0.19c0-0.068,0.015-0.146,0.045-0.236c0.209-0.3,0.378-0.569,0.505-0.809
		c0.127-0.239,0.25-0.486,0.371-0.741c0.135-0.3,0.281-0.599,0.438-0.898s0.355-0.592,0.595-0.876l0.157-0.225l0.247,0.022
		c0.06-0.03,0.124-0.056,0.191-0.079c0.067-0.021,0.153-0.033,0.258-0.033l0.404,0.067c0.494-0.225,0.932-0.55,1.314-0.978
		c0.382-0.426,0.767-0.939,1.157-1.538l0.27-0.382l0.359,0.225c0.075,0.045,0.194,0.09,0.359,0.135
		c0.165,0.045,0.337,0.098,0.517,0.157c0.314,0.075,0.621,0.161,0.921,0.259c0.299,0.097,0.531,0.228,0.696,0.393l0.112,0.202
		c0.03,0.165,0.056,0.314,0.079,0.449s0.048,0.27,0.079,0.404c0.06,0.314,0.112,0.625,0.157,0.933
		c0.045,0.307,0.075,0.647,0.09,1.021c0.075,0.3,0.146,0.603,0.213,0.91c0.067,0.307,0.131,0.609,0.191,0.909
		c0.075,0.435,0.157,0.85,0.247,1.247c0.09,0.396,0.209,0.774,0.359,1.134c0.149,0,0.239,0.008,0.27,0.022
		c0.18-0.075,0.389-0.12,0.629-0.135l0.292-0.022l0.09,0.27c0.03,0.045,0.067,0.09,0.112,0.135s0.097,0.09,0.157,0.135
		c0.239,0.015,0.416,0.063,0.528,0.146c0.112,0.083,0.206,0.161,0.281,0.236c0.03,0.03,0.067,0.063,0.112,0.102
		c0.045,0.037,0.082,0.063,0.112,0.078l0.404,0.157l-0.225,0.427c-0.165,0.314-0.416,0.621-0.752,0.921s-0.715,0.547-1.134,0.741
		c0.03,0.104,0.048,0.202,0.056,0.292c0.007,0.09,0.026,0.194,0.056,0.314c0.06,0.3,0.108,0.61,0.146,0.933
		c0.037,0.321,0.034,0.654-0.011,0.999c-0.15,0.39-0.326,0.737-0.528,1.044c-0.202,0.308-0.442,0.584-0.719,0.832
		c-0.277,0.246-0.588,0.449-0.932,0.605c-0.345,0.158-0.704,0.244-1.078,0.259c-0.21-0.045-0.363-0.098-0.46-0.157
		c-0.098-0.06-0.184-0.12-0.258-0.18c-0.12-0.09-0.217-0.149-0.292-0.18l-0.292-0.135l0.09-0.337
		c0.045-0.12,0.041-0.225-0.011-0.314c-0.053-0.09-0.161-0.21-0.326-0.359c-0.06-0.045-0.112-0.094-0.157-0.146
		c-0.045-0.053-0.098-0.109-0.157-0.169l-0.449-0.517l0.741-0.202c0.449-0.12,0.749-0.273,0.898-0.46
		c0.149-0.188,0.209-0.521,0.18-1c-0.375-0.075-0.682-0.086-0.921-0.033c-0.24,0.052-0.479,0.108-0.719,0.168
		c-0.345,0.09-0.682,0.168-1.011,0.236c-0.33,0.066-0.689,0.101-1.078,0.101c-0.255,0-0.524-0.022-0.809-0.067l-0.247-0.022
		l-0.067-0.247c0-0.03-0.019-0.063-0.056-0.102c-0.038-0.037-0.071-0.07-0.101-0.101c-0.075-0.09-0.165-0.21-0.27-0.359
		c-0.105-0.149-0.127-0.337-0.067-0.562c-0.105-0.165-0.165-0.337-0.18-0.517c-0.06,0.12-0.109,0.235-0.146,0.349
		c-0.038,0.111-0.071,0.221-0.101,0.325l-0.09,0.292l-0.292,0.045c-0.03,0.03-0.056,0.075-0.079,0.135s-0.026,0.104-0.011,0.135
		l0.09,0.247l-0.225,0.202c-0.03,0.045-0.067,0.082-0.112,0.112s-0.083,0.06-0.112,0.09c-0.03,0.165-0.071,0.322-0.124,0.472
		c-0.053,0.149-0.109,0.3-0.168,0.449c-0.075,0.239-0.146,0.472-0.213,0.696s-0.101,0.449-0.101,0.674l-0.09,0.292
		c-0.075,0.12-0.168,0.21-0.281,0.27s-0.221,0.112-0.326,0.157c-0.15,0.06-0.255,0.12-0.314,0.18l-0.067,0.292l-0.337,0.045
		c-0.195,0.045-0.333,0.075-0.416,0.09c-0.083,0.015-0.176,0.022-0.281,0.022l-0.292-0.022c-0.18-0.18-0.326-0.318-0.438-0.416
		c-0.112-0.097-0.244-0.183-0.393-0.258l-0.135-0.18c-0.06-0.12-0.097-0.229-0.112-0.326c-0.015-0.097-0.037-0.198-0.067-0.303
		c-0.03-0.194-0.075-0.329-0.135-0.404L51.384,118.377z M58.549,112.538c-0.21,0.3-0.412,0.614-0.606,0.943
		c0.104-0.015,0.206-0.022,0.303-0.022c0.097,0,0.198-0.008,0.303-0.022c0.524-0.03,1.011-0.067,1.46-0.112s0.936-0.12,1.46-0.225
		c-0.12-0.554-0.251-1.119-0.393-1.695c-0.143-0.577-0.296-1.157-0.46-1.741l-0.112,0.225c-0.375,0.404-0.734,0.839-1.078,1.303
		c-0.345,0.464-0.629,0.906-0.854,1.325L58.549,112.538z"/>
	<path fill="#FFFFFF" d="M72.183,118.4c-0.15,0.12-0.24,0.273-0.27,0.461c-0.03,0.187-0.067,0.37-0.112,0.55
		s-0.124,0.333-0.236,0.46c-0.112,0.128-0.311,0.184-0.595,0.169c-0.06,0.075-0.071,0.12-0.034,0.135
		c0.037,0.015,0.071,0.082,0.101,0.202c-0.21-0.03-0.359-0.015-0.449,0.045s-0.202,0.104-0.337,0.135
		c-0.345-0.104-0.633-0.296-0.865-0.572c-0.232-0.277-0.435-0.581-0.606-0.91c-0.172-0.329-0.322-0.666-0.449-1.011
		c-0.127-0.345-0.258-0.644-0.393-0.898c0-0.06,0.026-0.086,0.079-0.079c0.053,0.008,0.101,0.012,0.146,0.012
		c-0.075-0.149-0.131-0.318-0.168-0.506c-0.037-0.187-0.108-0.34-0.213-0.46c0.434-0.929,0.898-1.897,1.393-2.909
		c0.494-1.01,0.992-2.036,1.494-3.076c0.501-1.041,1.003-2.09,1.505-3.145c0.501-1.057,0.984-2.093,1.449-3.111
		c0.419,0.149,0.827,0.326,1.224,0.527c0.397,0.203,0.761,0.438,1.09,0.708s0.61,0.58,0.842,0.933
		c0.232,0.352,0.386,0.752,0.461,1.201c-0.03,0.09-0.067,0.12-0.112,0.09s-0.082-0.015-0.112,0.045
		c0.075,0.09,0.116,0.153,0.123,0.191c0.008,0.037,0.004,0.074-0.011,0.111c-0.015,0.038-0.022,0.087-0.022,0.146
		s0.037,0.143,0.112,0.247c-0.075-0.015-0.127-0.004-0.157,0.034c-0.03,0.037-0.082,0.041-0.157,0.011
		c0.075,0.21,0.098,0.374,0.067,0.494s-0.075,0.229-0.135,0.325c-0.06,0.098-0.108,0.203-0.146,0.314
		c-0.037,0.113-0.025,0.267,0.034,0.461c-0.06,0-0.101,0.012-0.124,0.033c-0.021,0.023-0.041,0.049-0.056,0.079
		s-0.034,0.056-0.056,0.079c-0.023,0.021-0.064,0.025-0.124,0.011c0.045,0.39,0.06,0.782,0.045,1.179
		c-0.015,0.397-0.03,0.802-0.045,1.213c-0.015,0.412-0.015,0.835,0,1.27s0.075,0.884,0.18,1.348c0.644-0.374,1.164-0.861,1.562-1.46
		c0.396-0.599,0.711-1.266,0.943-1.999c0.231-0.733,0.411-1.52,0.539-2.358c0.127-0.839,0.258-1.692,0.393-2.561
		c0.165-0.165,0.296-0.367,0.393-0.606c0.098-0.239,0.18-0.486,0.248-0.741c0.066-0.255,0.135-0.513,0.201-0.774
		c0.068-0.263,0.161-0.498,0.281-0.708c0.27,0.03,0.498,0.108,0.686,0.235c0.187,0.128,0.362,0.27,0.527,0.428
		c0.165,0.156,0.337,0.303,0.517,0.438s0.404,0.225,0.674,0.27c0.21,0.3,0.404,0.588,0.584,0.865c0.18,0.276,0.3,0.587,0.359,0.932
		c-0.09,0.149-0.157,0.314-0.202,0.494s-0.094,0.359-0.146,0.539c-0.052,0.18-0.123,0.345-0.213,0.494s-0.217,0.277-0.382,0.382
		c-0.045,0.449-0.112,0.868-0.202,1.258s-0.172,0.771-0.247,1.146s-0.143,0.764-0.202,1.168s-0.082,0.846-0.067,1.325
		c-0.135,0.435-0.284,0.88-0.449,1.337c-0.165,0.456-0.284,0.879-0.359,1.269c-0.284,0.225-0.509,0.502-0.674,0.831
		s-0.337,0.659-0.517,0.988c-0.075,0.06-0.12,0.071-0.135,0.033c-0.015-0.037-0.082-0.063-0.202-0.078
		c0.015,0.135-0.011,0.221-0.079,0.258c-0.066,0.038-0.063,0.146,0.012,0.326c-0.255,0.12-0.479,0.277-0.674,0.472
		s-0.408,0.374-0.641,0.539c-0.231,0.165-0.501,0.273-0.809,0.325c-0.307,0.053-0.707-0.011-1.201-0.19
		c-0.733-0.539-1.393-1.16-1.977-1.864s-1.048-1.535-1.393-2.493c-0.15,0.045-0.262,0.143-0.337,0.292
		c-0.075,0.149-0.143,0.307-0.202,0.472c-0.06,0.165-0.12,0.314-0.18,0.449c-0.06,0.135-0.15,0.202-0.27,0.202
		c-0.03,0.135-0.086,0.258-0.168,0.371c-0.083,0.111-0.161,0.225-0.236,0.336c-0.075,0.113-0.131,0.236-0.168,0.371
		C72.089,118.085,72.107,118.235,72.183,118.4z"/>
	<path fill="#FFFFFF" d="M97.788,120.601c-0.659,0.09-1.258,0.06-1.797-0.09s-1.022-0.382-1.448-0.696
		c-0.428-0.314-0.794-0.688-1.102-1.123c-0.307-0.435-0.558-0.898-0.752-1.393c-0.135-1.019-0.098-1.942,0.112-2.774
		c0.21-0.83,0.517-1.598,0.921-2.302s0.865-1.362,1.381-1.977c0.518-0.614,1.015-1.205,1.494-1.774c0.104,0.045,0.191,0.045,0.258,0
		c0.068-0.045,0.128-0.104,0.18-0.18c0.053-0.075,0.113-0.149,0.18-0.225c0.068-0.075,0.146-0.127,0.236-0.157
		c0.06-0.135,0.139-0.247,0.236-0.337c0.097-0.09,0.201-0.176,0.314-0.258c0.111-0.083,0.217-0.169,0.314-0.259
		c0.097-0.09,0.183-0.202,0.258-0.337c0.149-0.03,0.281-0.082,0.393-0.157c0.113-0.075,0.218-0.157,0.314-0.247
		c0.098-0.09,0.199-0.172,0.304-0.247s0.232-0.135,0.382-0.18v-0.292c0.329-0.149,0.569-0.314,0.719-0.494s0.329-0.412,0.539-0.696
		c0.165-0.015,0.296-0.022,0.393-0.022c0.098,0,0.251-0.015,0.461-0.045c0.135-0.255,0.262-0.441,0.382-0.562
		s0.292-0.255,0.517-0.404c0.225,0.12,0.464,0.19,0.719,0.214c0.255,0.021,0.486,0.138,0.696,0.348
		c0.015,0.18,0.067,0.318,0.157,0.416c0.09,0.097,0.188,0.187,0.292,0.27c0.104,0.082,0.21,0.168,0.314,0.258
		s0.172,0.217,0.202,0.382c0.075,0,0.123-0.015,0.146-0.045c0.021-0.03,0.07-0.037,0.146-0.022c0.03,0.12,0.06,0.217,0.09,0.292
		s0.063,0.143,0.101,0.202c0.038,0.06,0.075,0.127,0.113,0.202c0.037,0.075,0.07,0.165,0.101,0.27
		c-0.075,0.18-0.143,0.37-0.202,0.573c-0.06,0.201-0.18,0.34-0.359,0.415c0,0.12,0.045,0.184,0.135,0.19
		c0.09,0.008,0.143,0.064,0.157,0.169c0.015,0.135-0.008,0.247-0.067,0.337c0.419,0.704,0.801,1.441,1.146,2.213
		c0.345,0.771,0.733,1.508,1.168,2.212c-0.03,0.21-0.019,0.415,0.034,0.618c0.052,0.201,0.119,0.4,0.201,0.595
		c0.083,0.194,0.161,0.39,0.236,0.584s0.127,0.39,0.157,0.584c0.03,0.255,0.03,0.528,0,0.819c-0.03,0.293-0.09,0.573-0.18,0.843
		s-0.21,0.521-0.359,0.753c-0.149,0.231-0.322,0.407-0.517,0.527c-0.239,0.3-0.539,0.543-0.898,0.73
		c-0.359,0.187-0.688,0.407-0.988,0.662c-0.21,0.12-0.435,0.206-0.674,0.258c-0.239,0.053-0.486,0.109-0.741,0.169
		c-0.194,0.12-0.427,0.235-0.696,0.349c-0.27,0.111-0.547,0.213-0.831,0.303s-0.569,0.161-0.854,0.213
		c-0.284,0.053-0.539,0.064-0.764,0.034c-0.539,0.194-1.063,0.329-1.572,0.404S98.477,120.75,97.788,120.601z M98.08,112.425
		c-0.149,0.345-0.326,0.655-0.527,0.932c-0.203,0.277-0.401,0.559-0.596,0.843s-0.363,0.588-0.506,0.909
		c-0.142,0.322-0.221,0.7-0.235,1.135c0.3,0.255,0.655,0.408,1.067,0.461c0.411,0.052,0.834,0.06,1.269,0.021
		c0.435-0.037,0.868-0.093,1.303-0.168s0.823-0.112,1.168-0.112c0-0.135,0.06-0.202,0.18-0.202c0.629-0.06,1.213-0.236,1.752-0.527
		c0.539-0.293,1.101-0.588,1.685-0.888c0.075-0.18,0.172-0.337,0.292-0.472s0.188-0.329,0.202-0.584
		c-0.075-0.135-0.123-0.247-0.146-0.337c-0.021-0.09-0.033-0.225-0.033-0.404c-0.39-0.539-0.727-1.127-1.011-1.763
		c-0.284-0.637-0.614-1.239-0.988-1.809c-0.03,0.075-0.09,0.149-0.18,0.225s-0.188,0.06-0.292-0.045
		c-0.045,0.149-0.112,0.251-0.202,0.303c-0.09,0.053-0.19,0.079-0.304,0.079c-0.111,0-0.225-0.022-0.336-0.067
		c-0.113-0.045-0.214-0.104-0.304-0.18c-0.524,0.419-1.044,0.823-1.562,1.213c-0.516,0.39-0.984,0.846-1.403,1.37
		c-0.075,0.045-0.12,0.06-0.135,0.045S98.17,112.395,98.08,112.425z"/>
	<path fill="#FFFFFF" d="M110.479,115.952c-0.449-0.255-0.794-0.614-1.033-1.078s-0.374-0.906-0.404-1.325
		c0.045-0.359,0.139-0.641,0.281-0.842c0.142-0.203,0.311-0.367,0.505-0.494c0.194-0.128,0.396-0.225,0.606-0.293
		c0.21-0.066,0.412-0.123,0.606-0.168l0.337,0.112c0.075,0.075,0.153,0.143,0.236,0.202c0.082,0.06,0.16,0.12,0.235,0.18
		c0.149-0.06,0.243-0.149,0.28-0.27c0.038-0.12,0.079-0.239,0.124-0.359c0.045-0.165,0.098-0.329,0.157-0.494
		s0.135-0.329,0.225-0.494c-0.015-0.135-0.008-0.255,0.022-0.359s0.06-0.194,0.09-0.27c-0.09-0.075-0.153-0.116-0.19-0.123
		c-0.038-0.008-0.102-0.026-0.191-0.057c-0.045,0-0.09-0.004-0.135-0.012c-0.045-0.007-0.098-0.019-0.157-0.033
		c-0.225-0.165-0.37-0.303-0.438-0.416c-0.066-0.111-0.138-0.228-0.213-0.348s-0.143-0.225-0.202-0.314s-0.127-0.172-0.202-0.247
		l-0.27-0.18l0.135-0.27c0.03-0.03,0.045-0.071,0.045-0.124c0-0.052-0.03-0.131-0.09-0.235c-0.045-0.194-0.053-0.337-0.022-0.427
		l0.045-0.27c0.149-0.194,0.232-0.307,0.247-0.337l0.225-0.225c0.345-0.09,0.696-0.19,1.056-0.304
		c0.359-0.111,0.711-0.228,1.056-0.348s0.696-0.239,1.056-0.359s0.719-0.225,1.078-0.314c0.12-0.104,0.251-0.168,0.394-0.191
		c0.142-0.021,0.272-0.041,0.393-0.056c0.104,0,0.202-0.008,0.292-0.022s0.157-0.053,0.202-0.112
		c0.255-0.09,0.502-0.165,0.741-0.225c0.449-0.12,1.041-0.262,1.774-0.427s1.558-0.284,2.471-0.359l0.472-0.022
		c0.09,0.015,0.18,0.019,0.27,0.011c0.09-0.007,0.18-0.011,0.27-0.011c0.778,0,1.295,0.239,1.55,0.719
		c0.149,0.075,0.284,0.169,0.404,0.28c0.12,0.113,0.232,0.222,0.337,0.326c0.075,0.075,0.143,0.139,0.202,0.191
		c0.06,0.052,0.112,0.093,0.157,0.123l0.18,0.18c0.165,0.359,0.194,0.711,0.09,1.056c-0.09,0.18-0.188,0.284-0.292,0.314
		s-0.21,0.06-0.314,0.09l-0.292,0.157c-0.194-0.015-0.341-0.022-0.438-0.022c-0.097,0-0.205,0-0.325,0
		c-0.449,0-0.97,0.026-1.562,0.079c-0.591,0.052-1.193,0.127-1.808,0.225c-0.614,0.097-1.213,0.217-1.797,0.359
		c-0.584,0.142-1.093,0.295-1.527,0.46c-0.12,0.09-0.277,0.172-0.472,0.247c-0.045,0.015-0.112,0.053-0.202,0.112
		c0.015,0.12,0.015,0.235,0,0.349c-0.015,0.111-0.037,0.221-0.067,0.325c-0.015,0.075-0.026,0.153-0.033,0.235
		c-0.008,0.083-0.02,0.169-0.034,0.259c-0.314,0.374-0.464,0.816-0.449,1.325l-0.112,0.225c-0.06,0.06-0.108,0.146-0.146,0.258
		c-0.037,0.113-0.041,0.229-0.011,0.349l0.09,0.27c0.3-0.03,0.595-0.063,0.888-0.101c0.291-0.038,0.603-0.079,0.932-0.124
		c0.419-0.075,0.842-0.139,1.27-0.19c0.426-0.053,0.872-0.079,1.336-0.079h0.876l-0.202,0.202l0.247,0.022l-0.135,0.359
		c0.104,0.045,0.184,0.079,0.235,0.101c0.053,0.023,0.102,0.049,0.146,0.079l0.157,0.225c0.075,0.045,0.143,0.116,0.202,0.214
		c0.06,0.097,0.098,0.228,0.112,0.393l-0.067,0.225l-1.056,1.348l-0.135,0.18l-0.225-0.067c-0.284-0.015-0.554,0.015-0.809,0.09
		c-0.12,0.03-0.247,0.063-0.382,0.101c-0.135,0.038-0.27,0.057-0.404,0.057c-0.359,0.06-0.659,0.108-0.898,0.146
		c-0.239,0.037-0.479,0.07-0.719,0.101c-0.329,0.06-0.647,0.116-0.955,0.169c-0.307,0.052-0.595,0.131-0.864,0.235
		c-0.165,0.015-0.262,0.019-0.292,0.011c-0.03-0.007-0.06-0.011-0.09-0.011c-0.149,0-0.3,0.022-0.449,0.067s-0.292,0.09-0.427,0.135
		c-0.09,0.075-0.149,0.153-0.18,0.236c-0.03,0.082-0.06,0.168-0.09,0.258c-0.03,0.104-0.071,0.206-0.124,0.303
		c-0.052,0.098-0.115,0.199-0.19,0.304l0.022,0.404c-0.135,0.03-0.202,0.049-0.202,0.056c0,0.008-0.008,0.012-0.022,0.012
		c0,0.12-0.019,0.232-0.057,0.337c-0.037,0.104-0.07,0.202-0.101,0.292c-0.03,0.06-0.053,0.112-0.067,0.157s-0.022,0.09-0.022,0.135
		c0.149,0.27,0.188,0.576,0.112,0.921c-0.06,0.284-0.172,0.535-0.337,0.752c-0.165,0.218-0.359,0.386-0.584,0.506
		c-0.239,0.03-0.415,0.022-0.528-0.022c-0.111-0.045-0.228-0.09-0.348-0.135c-0.075-0.03-0.149-0.056-0.225-0.079
		c-0.075-0.021-0.149-0.041-0.225-0.056l-0.27-0.225c-0.045-0.09-0.098-0.176-0.157-0.259c-0.06-0.082-0.12-0.168-0.18-0.258
		c-0.075-0.104-0.149-0.21-0.225-0.314s-0.143-0.225-0.202-0.359c-0.104-0.524-0.123-0.962-0.057-1.314
		c0.068-0.352,0.161-0.699,0.281-1.044c0.03-0.12,0.06-0.232,0.09-0.337S110.448,116.072,110.479,115.952z"/>
	<path fill="#FFFFFF" d="M123.708,115.952c-0.449-0.255-0.794-0.614-1.033-1.078s-0.374-0.906-0.404-1.325
		c0.045-0.359,0.139-0.641,0.28-0.842c0.143-0.203,0.312-0.367,0.506-0.494c0.194-0.128,0.396-0.225,0.606-0.293
		c0.21-0.066,0.412-0.123,0.606-0.168l0.337,0.112c0.075,0.075,0.153,0.143,0.235,0.202c0.083,0.06,0.161,0.12,0.236,0.18
		c0.149-0.06,0.243-0.149,0.281-0.27c0.037-0.12,0.078-0.239,0.123-0.359c0.045-0.165,0.098-0.329,0.157-0.494
		s0.135-0.329,0.225-0.494c-0.015-0.135-0.008-0.255,0.022-0.359s0.06-0.194,0.09-0.27c-0.09-0.075-0.153-0.116-0.191-0.123
		c-0.037-0.008-0.101-0.026-0.19-0.057c-0.045,0-0.09-0.004-0.135-0.012c-0.045-0.007-0.098-0.019-0.157-0.033
		c-0.225-0.165-0.371-0.303-0.438-0.416c-0.068-0.111-0.139-0.228-0.214-0.348s-0.143-0.225-0.202-0.314s-0.127-0.172-0.202-0.247
		l-0.27-0.18l0.135-0.27c0.03-0.03,0.045-0.071,0.045-0.124c0-0.052-0.03-0.131-0.09-0.235c-0.045-0.194-0.053-0.337-0.022-0.427
		l0.045-0.27c0.149-0.194,0.232-0.307,0.247-0.337l0.225-0.225c0.345-0.09,0.696-0.19,1.056-0.304
		c0.359-0.111,0.711-0.228,1.056-0.348s0.696-0.239,1.056-0.359s0.719-0.225,1.078-0.314c0.12-0.104,0.251-0.168,0.393-0.191
		c0.143-0.021,0.273-0.041,0.394-0.056c0.104,0,0.202-0.008,0.292-0.022s0.157-0.053,0.202-0.112
		c0.255-0.09,0.502-0.165,0.741-0.225c0.449-0.12,1.041-0.262,1.774-0.427s1.558-0.284,2.471-0.359l0.472-0.022
		c0.09,0.015,0.18,0.019,0.27,0.011c0.09-0.007,0.18-0.011,0.27-0.011c0.778,0,1.295,0.239,1.55,0.719
		c0.149,0.075,0.284,0.169,0.404,0.28c0.12,0.113,0.232,0.222,0.337,0.326c0.075,0.075,0.143,0.139,0.202,0.191
		c0.06,0.052,0.112,0.093,0.157,0.123l0.18,0.18c0.165,0.359,0.194,0.711,0.09,1.056c-0.09,0.18-0.188,0.284-0.292,0.314
		s-0.21,0.06-0.314,0.09l-0.292,0.157c-0.194-0.015-0.341-0.022-0.438-0.022c-0.098,0-0.206,0-0.326,0
		c-0.449,0-0.97,0.026-1.561,0.079c-0.592,0.052-1.194,0.127-1.809,0.225c-0.614,0.097-1.213,0.217-1.797,0.359
		c-0.584,0.142-1.093,0.295-1.527,0.46c-0.12,0.09-0.277,0.172-0.472,0.247c-0.045,0.015-0.112,0.053-0.202,0.112
		c0.015,0.12,0.015,0.235,0,0.349c-0.015,0.111-0.037,0.221-0.067,0.325c-0.015,0.075-0.026,0.153-0.034,0.235
		c-0.007,0.083-0.019,0.169-0.033,0.259c-0.314,0.374-0.464,0.816-0.449,1.325l-0.112,0.225c-0.06,0.06-0.108,0.146-0.146,0.258
		c-0.038,0.113-0.042,0.229-0.012,0.349l0.09,0.27c0.3-0.03,0.596-0.063,0.887-0.101c0.293-0.038,0.604-0.079,0.933-0.124
		c0.419-0.075,0.843-0.139,1.269-0.19c0.428-0.053,0.873-0.079,1.337-0.079h0.876l-0.202,0.202l0.247,0.022l-0.135,0.359
		c0.104,0.045,0.184,0.079,0.236,0.101c0.052,0.023,0.101,0.049,0.146,0.079l0.157,0.225c0.075,0.045,0.143,0.116,0.202,0.214
		c0.06,0.097,0.098,0.228,0.112,0.393l-0.067,0.225l-1.056,1.348l-0.135,0.18l-0.225-0.067c-0.284-0.015-0.554,0.015-0.809,0.09
		c-0.12,0.03-0.247,0.063-0.382,0.101c-0.135,0.038-0.27,0.057-0.404,0.057c-0.359,0.06-0.659,0.108-0.898,0.146
		c-0.239,0.037-0.479,0.07-0.719,0.101c-0.329,0.06-0.647,0.116-0.954,0.169c-0.308,0.052-0.596,0.131-0.865,0.235
		c-0.165,0.015-0.262,0.019-0.292,0.011c-0.03-0.007-0.06-0.011-0.09-0.011c-0.149,0-0.3,0.022-0.449,0.067s-0.292,0.09-0.427,0.135
		c-0.09,0.075-0.149,0.153-0.18,0.236c-0.03,0.082-0.06,0.168-0.09,0.258c-0.03,0.104-0.071,0.206-0.123,0.303
		c-0.053,0.098-0.116,0.199-0.191,0.304l0.022,0.404c-0.135,0.03-0.202,0.049-0.202,0.056c0,0.008-0.008,0.012-0.022,0.012
		c0,0.12-0.019,0.232-0.056,0.337c-0.038,0.104-0.071,0.202-0.102,0.292c-0.03,0.06-0.053,0.112-0.067,0.157
		s-0.022,0.09-0.022,0.135c0.149,0.27,0.188,0.576,0.112,0.921c-0.06,0.284-0.172,0.535-0.337,0.752
		c-0.165,0.218-0.359,0.386-0.584,0.506c-0.239,0.03-0.416,0.022-0.527-0.022c-0.113-0.045-0.229-0.09-0.349-0.135
		c-0.075-0.03-0.149-0.056-0.225-0.079c-0.075-0.021-0.149-0.041-0.225-0.056l-0.27-0.225c-0.045-0.09-0.098-0.176-0.157-0.259
		c-0.06-0.082-0.12-0.168-0.18-0.258c-0.075-0.104-0.149-0.21-0.225-0.314s-0.143-0.225-0.202-0.359
		c-0.104-0.524-0.124-0.962-0.056-1.314c0.066-0.352,0.16-0.699,0.28-1.044c0.03-0.12,0.06-0.232,0.09-0.337
		S123.678,116.072,123.708,115.952z"/>
	<path fill="#FFFFFF" d="M136.331,120.781c-0.21-0.135-0.378-0.307-0.505-0.517c-0.128-0.21-0.232-0.435-0.314-0.674
		c-0.083-0.239-0.15-0.49-0.203-0.753c-0.052-0.262-0.108-0.513-0.168-0.752c0-0.21,0.045-0.363,0.135-0.461
		c0.09-0.097,0.188-0.19,0.292-0.28c0.359-0.015,0.682-0.045,0.966-0.09s0.562-0.09,0.831-0.135s0.539-0.086,0.809-0.124
		c0.27-0.037,0.562-0.056,0.876-0.056c0.225-0.464,0.435-0.909,0.629-1.337c0.194-0.426,0.382-0.834,0.562-1.224
		c0.09-0.374,0.206-0.723,0.349-1.044c0.142-0.322,0.28-0.629,0.415-0.922c0.135-0.291,0.255-0.584,0.359-0.875
		c0.104-0.293,0.172-0.604,0.202-0.933c0.18-0.524,0.341-1.007,0.482-1.448c0.143-0.442,0.251-0.97,0.326-1.584
		c-0.569,0.09-1.025,0.176-1.37,0.258c-0.345,0.083-0.592,0.161-0.741,0.236c-0.3-0.015-0.535-0.075-0.707-0.18
		c-0.173-0.104-0.312-0.232-0.416-0.382s-0.194-0.322-0.27-0.517s-0.165-0.396-0.27-0.606c0.06-0.135,0.075-0.333,0.045-0.595
		c-0.03-0.263-0.12-0.453-0.27-0.573c0.12-0.03,0.21-0.131,0.27-0.304c0.06-0.172,0.067-0.303,0.022-0.393
		c0.255-0.075,0.524-0.123,0.809-0.146c0.284-0.021,0.565-0.045,0.843-0.066c0.276-0.023,0.542-0.053,0.797-0.09
		c0.255-0.038,0.472-0.116,0.651-0.236c0.778-0.03,1.591-0.06,2.437-0.09c0.847-0.03,1.629-0.067,2.348-0.112
		c0.27,0.09,0.58,0.135,0.932,0.135c0.353,0,0.704,0.022,1.057,0.067c0.352,0.045,0.666,0.143,0.943,0.292
		c0.276,0.149,0.468,0.412,0.572,0.786c0.225,0.03,0.393,0.09,0.506,0.18c0.111,0.09,0.183,0.198,0.213,0.326
		c0.03,0.127,0.041,0.27,0.033,0.426c-0.007,0.158-0.011,0.312-0.011,0.461c-0.239,0.18-0.543,0.326-0.909,0.438
		c-0.367,0.113-0.768,0.203-1.202,0.27c-0.435,0.068-0.888,0.113-1.358,0.135c-0.473,0.023-0.933,0.042-1.382,0.057
		c-0.075,0.494-0.206,1.074-0.394,1.74c-0.187,0.667-0.378,1.318-0.572,1.955c-0.194,0.636-0.363,1.205-0.506,1.707
		c-0.142,0.501-0.205,0.827-0.19,0.977c-0.149,0.345-0.273,0.637-0.37,0.876c-0.098,0.239-0.188,0.464-0.27,0.674
		c-0.083,0.21-0.165,0.415-0.248,0.618c-0.082,0.201-0.183,0.43-0.303,0.685h1.527c0.03,0.165,0.098,0.277,0.202,0.337
		s0.217,0.112,0.337,0.157s0.229,0.101,0.326,0.169c0.097,0.066,0.146,0.176,0.146,0.325c0.284,0.075,0.464,0.188,0.539,0.337
		s0.094,0.311,0.056,0.482c-0.037,0.173-0.111,0.349-0.225,0.528c-0.111,0.18-0.221,0.337-0.325,0.472
		c-0.135-0.03-0.262,0.004-0.382,0.102c-0.12,0.097-0.232,0.205-0.337,0.325c-0.435-0.06-0.861-0.067-1.28-0.022
		s-0.809,0.082-1.168,0.112c-0.075,0.015-0.104,0.056-0.09,0.124c0.015,0.066,0,0.115-0.045,0.146
		c-0.464-0.149-0.939-0.21-1.426-0.18c-0.487,0.03-0.981,0.101-1.482,0.214c-0.502,0.111-1.015,0.231-1.539,0.359
		C137.401,120.695,136.87,120.766,136.331,120.781z"/>
	<path fill="#FFFFFF" d="M149.897,118.557c-0.435-0.329-0.79-0.741-1.067-1.235c-0.276-0.494-0.494-1.019-0.65-1.572
		c-0.158-0.554-0.263-1.127-0.314-1.719c-0.053-0.591-0.071-1.156-0.057-1.695c0.135-0.404,0.3-0.775,0.494-1.111
		c0.194-0.338,0.412-0.659,0.651-0.967c0.239-0.307,0.49-0.599,0.753-0.875c0.262-0.277,0.52-0.559,0.774-0.843
		c0.09,0,0.172,0.022,0.247,0.067c0.06-0.165,0.149-0.307,0.27-0.427s0.247-0.229,0.382-0.325c0.135-0.098,0.27-0.195,0.404-0.293
		c0.135-0.097,0.247-0.213,0.337-0.348c0.374-0.09,0.707-0.217,1-0.382c0.291-0.165,0.572-0.345,0.842-0.539
		s0.547-0.374,0.831-0.539s0.614-0.292,0.988-0.382c0.135-0.149,0.304-0.277,0.505-0.382c0.203-0.104,0.404-0.202,0.607-0.292
		c0.201-0.09,0.396-0.188,0.584-0.292c0.187-0.104,0.34-0.247,0.46-0.427c0.09,0.12,0.217,0.161,0.382,0.123
		c0.165-0.037,0.314-0.078,0.449-0.123c0.09-0.015,0.165,0,0.225,0.045s0.116,0.094,0.168,0.146
		c0.053,0.052,0.098,0.086,0.135,0.101c0.038,0.015,0.079-0.03,0.124-0.135c0.12,0.015,0.153,0.067,0.101,0.157
		c-0.052,0.09-0.086,0.149-0.101,0.18c0.149-0.03,0.273-0.004,0.37,0.078c0.098,0.083,0.251,0.139,0.461,0.169
		c0.075,0.075,0.098,0.135,0.067,0.18s-0.053,0.12-0.067,0.225c0.539,0.165,0.884,0.423,1.033,0.774
		c0.149,0.353,0.165,0.719,0.045,1.102c-0.12,0.381-0.341,0.733-0.662,1.055c-0.322,0.322-0.678,0.536-1.067,0.641
		c-0.464,0.12-0.895,0.239-1.292,0.359c-0.396,0.12-0.778,0.255-1.145,0.404c-0.367,0.149-0.712,0.326-1.033,0.527
		c-0.322,0.203-0.604,0.438-0.843,0.708c-0.419,0.12-0.798,0.284-1.134,0.494c-0.338,0.21-0.652,0.441-0.943,0.696
		c-0.293,0.255-0.573,0.521-0.843,0.797c-0.27,0.277-0.539,0.551-0.809,0.82c0,0.255-0.045,0.449-0.135,0.584
		s-0.188,0.27-0.292,0.404c0.03,0.284,0.094,0.527,0.191,0.73c0.097,0.201,0.198,0.407,0.303,0.617
		c1.198,0.359,2.467,0.58,3.807,0.662c1.341,0.083,2.67,0.132,3.987,0.146c0.135,0.18,0.288,0.348,0.46,0.506
		c0.173,0.156,0.33,0.317,0.473,0.482c0.142,0.165,0.254,0.355,0.336,0.572c0.083,0.218,0.102,0.476,0.057,0.775
		c-0.255,0.255-0.531,0.498-0.831,0.73c-0.3,0.231-0.599,0.46-0.898,0.685c-0.135,0.015-0.296,0.015-0.483,0
		c-0.187-0.015-0.381-0.022-0.584-0.022c-0.201,0-0.404,0.012-0.605,0.033c-0.203,0.023-0.394,0.071-0.573,0.146
		c-0.943-0.03-1.909-0.146-2.897-0.348c-0.988-0.203-1.901-0.446-2.74-0.73c-0.165-0.194-0.337-0.378-0.517-0.551
		C150.437,118.755,150.197,118.632,149.897,118.557z"/>
	<path fill="#FFFFFF" d="M161.555,120.781c-0.21-0.135-0.378-0.307-0.506-0.517c-0.127-0.21-0.231-0.435-0.314-0.674
		c-0.082-0.239-0.149-0.49-0.201-0.753c-0.053-0.262-0.109-0.513-0.169-0.752c0-0.21,0.045-0.363,0.135-0.461
		c0.09-0.097,0.188-0.19,0.292-0.28c0.359-0.015,0.682-0.045,0.966-0.09s0.562-0.09,0.831-0.135s0.539-0.086,0.809-0.124
		c0.27-0.037,0.562-0.056,0.876-0.056c0.225-0.464,0.435-0.909,0.629-1.337c0.194-0.426,0.382-0.834,0.562-1.224
		c0.09-0.374,0.206-0.723,0.348-1.044c0.143-0.322,0.281-0.629,0.416-0.922c0.135-0.291,0.255-0.584,0.359-0.875
		c0.104-0.293,0.172-0.604,0.202-0.933c0.18-0.524,0.341-1.007,0.483-1.448c0.142-0.442,0.25-0.97,0.325-1.584
		c-0.569,0.09-1.025,0.176-1.37,0.258c-0.345,0.083-0.592,0.161-0.741,0.236c-0.3-0.015-0.535-0.075-0.708-0.18
		c-0.172-0.104-0.311-0.232-0.415-0.382s-0.194-0.322-0.27-0.517s-0.165-0.396-0.27-0.606c0.06-0.135,0.075-0.333,0.045-0.595
		c-0.03-0.263-0.12-0.453-0.27-0.573c0.12-0.03,0.21-0.131,0.27-0.304c0.06-0.172,0.067-0.303,0.022-0.393
		c0.255-0.075,0.524-0.123,0.809-0.146c0.284-0.021,0.565-0.045,0.842-0.066c0.277-0.023,0.543-0.053,0.798-0.09
		c0.255-0.038,0.472-0.116,0.651-0.236c0.778-0.03,1.591-0.06,2.438-0.09c0.846-0.03,1.628-0.067,2.347-0.112
		c0.27,0.09,0.58,0.135,0.933,0.135c0.352,0,0.703,0.022,1.055,0.067c0.353,0.045,0.667,0.143,0.943,0.292
		c0.277,0.149,0.469,0.412,0.573,0.786c0.225,0.03,0.394,0.09,0.505,0.18c0.113,0.09,0.184,0.198,0.214,0.326
		c0.03,0.127,0.041,0.27,0.034,0.426c-0.008,0.158-0.012,0.312-0.012,0.461c-0.239,0.18-0.543,0.326-0.91,0.438
		c-0.366,0.113-0.767,0.203-1.201,0.27c-0.435,0.068-0.887,0.113-1.359,0.135c-0.471,0.023-0.932,0.042-1.381,0.057
		c-0.075,0.494-0.206,1.074-0.393,1.74c-0.188,0.667-0.379,1.318-0.573,1.955c-0.194,0.636-0.363,1.205-0.505,1.707
		c-0.143,0.501-0.206,0.827-0.191,0.977c-0.149,0.345-0.273,0.637-0.371,0.876c-0.097,0.239-0.187,0.464-0.27,0.674
		c-0.082,0.21-0.164,0.415-0.246,0.618c-0.083,0.201-0.184,0.43-0.304,0.685h1.527c0.03,0.165,0.098,0.277,0.202,0.337
		s0.217,0.112,0.337,0.157s0.229,0.101,0.325,0.169c0.098,0.066,0.146,0.176,0.146,0.325c0.284,0.075,0.464,0.188,0.539,0.337
		s0.094,0.311,0.057,0.482c-0.038,0.173-0.113,0.349-0.225,0.528c-0.113,0.18-0.222,0.337-0.326,0.472
		c-0.135-0.03-0.262,0.004-0.382,0.102c-0.12,0.097-0.232,0.205-0.337,0.325c-0.435-0.06-0.861-0.067-1.28-0.022
		s-0.809,0.082-1.168,0.112c-0.075,0.015-0.104,0.056-0.09,0.124c0.015,0.066,0,0.115-0.045,0.146
		c-0.464-0.149-0.939-0.21-1.427-0.18c-0.486,0.03-0.98,0.101-1.482,0.214c-0.501,0.111-1.014,0.231-1.538,0.359
		C162.625,120.695,162.094,120.766,161.555,120.781z"/>
	<path fill="#FFFFFF" d="M172.448,118.377l0.292-0.225l0.022-0.472c0.374-0.913,0.76-1.789,1.157-2.628
		c0.396-0.839,0.812-1.699,1.246-2.583c0.135-0.284,0.273-0.569,0.416-0.854c0.142-0.284,0.28-0.576,0.415-0.876
		c-0.015-0.06-0.022-0.124-0.022-0.19c0-0.068,0.015-0.146,0.045-0.236c0.21-0.3,0.378-0.569,0.506-0.809
		c0.127-0.239,0.25-0.486,0.37-0.741c0.135-0.3,0.28-0.599,0.438-0.898c0.156-0.3,0.355-0.592,0.595-0.876l0.157-0.225l0.247,0.022
		c0.06-0.03,0.124-0.056,0.19-0.079c0.068-0.021,0.154-0.033,0.259-0.033l0.404,0.067c0.494-0.225,0.933-0.55,1.313-0.978
		c0.383-0.426,0.768-0.939,1.157-1.538l0.27-0.382l0.359,0.225c0.075,0.045,0.194,0.09,0.359,0.135s0.337,0.098,0.517,0.157
		c0.314,0.075,0.621,0.161,0.921,0.259c0.3,0.097,0.531,0.228,0.696,0.393l0.112,0.202c0.03,0.165,0.056,0.314,0.079,0.449
		c0.021,0.135,0.048,0.27,0.078,0.404c0.06,0.314,0.112,0.625,0.157,0.933c0.045,0.307,0.075,0.647,0.09,1.021
		c0.075,0.3,0.146,0.603,0.214,0.91c0.066,0.307,0.131,0.609,0.19,0.909c0.075,0.435,0.157,0.85,0.247,1.247
		c0.09,0.396,0.21,0.774,0.359,1.134c0.149,0,0.239,0.008,0.27,0.022c0.18-0.075,0.39-0.12,0.629-0.135l0.292-0.022l0.09,0.27
		c0.03,0.045,0.067,0.09,0.112,0.135s0.098,0.09,0.157,0.135c0.239,0.015,0.415,0.063,0.528,0.146
		c0.111,0.083,0.205,0.161,0.28,0.236c0.03,0.03,0.067,0.063,0.112,0.102c0.045,0.037,0.082,0.063,0.112,0.078l0.404,0.157
		l-0.225,0.427c-0.165,0.314-0.415,0.621-0.753,0.921c-0.336,0.3-0.715,0.547-1.134,0.741c0.03,0.104,0.049,0.202,0.056,0.292
		c0.008,0.09,0.026,0.194,0.057,0.314c0.06,0.3,0.108,0.61,0.146,0.933c0.037,0.321,0.033,0.654-0.012,0.999
		c-0.149,0.39-0.326,0.737-0.527,1.044c-0.203,0.308-0.442,0.584-0.719,0.832c-0.277,0.246-0.588,0.449-0.933,0.605
		c-0.345,0.158-0.704,0.244-1.078,0.259c-0.21-0.045-0.363-0.098-0.46-0.157c-0.098-0.06-0.184-0.12-0.259-0.18
		c-0.12-0.09-0.217-0.149-0.292-0.18l-0.292-0.135l0.09-0.337c0.045-0.12,0.041-0.225-0.011-0.314
		c-0.053-0.09-0.161-0.21-0.326-0.359c-0.06-0.045-0.112-0.094-0.157-0.146c-0.045-0.053-0.098-0.109-0.157-0.169l-0.449-0.517
		l0.741-0.202c0.449-0.12,0.749-0.273,0.898-0.46c0.149-0.188,0.21-0.521,0.18-1c-0.374-0.075-0.682-0.086-0.921-0.033
		c-0.239,0.052-0.479,0.108-0.719,0.168c-0.345,0.09-0.682,0.168-1.011,0.236c-0.329,0.066-0.688,0.101-1.078,0.101
		c-0.255,0-0.524-0.022-0.809-0.067l-0.247-0.022l-0.067-0.247c0-0.03-0.019-0.063-0.056-0.102c-0.038-0.037-0.071-0.07-0.102-0.101
		c-0.075-0.09-0.165-0.21-0.27-0.359s-0.127-0.337-0.067-0.562c-0.104-0.165-0.165-0.337-0.18-0.517
		c-0.06,0.12-0.108,0.235-0.146,0.349c-0.038,0.111-0.071,0.221-0.102,0.325l-0.09,0.292l-0.292,0.045
		c-0.03,0.03-0.056,0.075-0.079,0.135c-0.021,0.06-0.025,0.104-0.011,0.135l0.09,0.247l-0.225,0.202
		c-0.03,0.045-0.067,0.082-0.112,0.112s-0.082,0.06-0.112,0.09c-0.03,0.165-0.071,0.322-0.124,0.472
		c-0.052,0.149-0.108,0.3-0.168,0.449c-0.075,0.239-0.146,0.472-0.213,0.696c-0.068,0.225-0.102,0.449-0.102,0.674l-0.09,0.292
		c-0.075,0.12-0.168,0.21-0.281,0.27c-0.111,0.06-0.221,0.112-0.325,0.157c-0.149,0.06-0.255,0.12-0.314,0.18l-0.067,0.292
		l-0.337,0.045c-0.194,0.045-0.333,0.075-0.415,0.09c-0.083,0.015-0.177,0.022-0.281,0.022l-0.292-0.022
		c-0.18-0.18-0.325-0.318-0.438-0.416c-0.111-0.097-0.243-0.183-0.393-0.258l-0.135-0.18c-0.06-0.12-0.098-0.229-0.112-0.326
		c-0.015-0.097-0.037-0.198-0.067-0.303c-0.03-0.194-0.075-0.329-0.135-0.404L172.448,118.377z M179.613,112.538
		c-0.21,0.3-0.412,0.614-0.606,0.943c0.104-0.015,0.206-0.022,0.304-0.022c0.097,0,0.198-0.008,0.303-0.022
		c0.524-0.03,1.011-0.067,1.46-0.112s0.936-0.12,1.46-0.225c-0.12-0.554-0.251-1.119-0.393-1.695
		c-0.143-0.577-0.296-1.157-0.461-1.741l-0.112,0.225c-0.374,0.404-0.733,0.839-1.078,1.303s-0.629,0.906-0.854,1.325
		L179.613,112.538z"/>
	<path fill="#FFFFFF" d="M190.462,119.68c-0.06-0.06-0.112-0.131-0.157-0.214c-0.045-0.082-0.082-0.19-0.112-0.325
		c-0.21-0.255-0.374-0.547-0.494-0.876s-0.202-0.67-0.247-1.021c-0.045-0.353-0.053-0.708-0.022-1.067s0.082-0.696,0.157-1.011
		c0.045-0.149,0.082-0.307,0.112-0.472c0.075-0.284,0.149-0.565,0.225-0.843c0.075-0.276,0.188-0.505,0.337-0.685
		c-0.06-0.165-0.053-0.345,0.022-0.539s0.149-0.374,0.225-0.539c0.03-0.045,0.053-0.086,0.067-0.124
		c0.015-0.037,0.03-0.07,0.045-0.101c0.18-0.524,0.355-1.029,0.527-1.517c0.173-0.486,0.341-0.954,0.506-1.403
		c0.3-0.823,0.588-1.632,0.865-2.426c0.276-0.794,0.527-1.64,0.752-2.538c0.12-0.09,0.225-0.149,0.314-0.18
		c0.03-0.015,0.067-0.03,0.112-0.045s0.098-0.022,0.157-0.022c0.314,0.165,0.686,0.318,1.111,0.46
		c0.428,0.143,0.79,0.214,1.09,0.214l0.382,0.337c0.194,0.225,0.363,0.461,0.505,0.707c0.143,0.248,0.184,0.565,0.124,0.955
		c-0.09,0.135-0.165,0.217-0.225,0.247c-0.09,0.345-0.188,0.647-0.292,0.909c-0.104,0.263-0.21,0.514-0.314,0.753
		c-0.12,0.27-0.232,0.539-0.337,0.809s-0.194,0.599-0.27,0.988c-0.09,0.104-0.146,0.194-0.169,0.27
		c-0.021,0.075-0.048,0.149-0.078,0.225c-0.03,0.09-0.067,0.184-0.112,0.28c-0.045,0.098-0.112,0.184-0.202,0.259
		c-0.06,0.464-0.149,0.843-0.27,1.134c-0.12,0.293-0.239,0.581-0.359,0.865c-0.21,0.524-0.404,1.045-0.584,1.561
		c-0.18,0.518-0.284,1.104-0.314,1.764c0.18-0.045,0.345-0.067,0.494-0.067c0.194,0,0.382,0.03,0.562,0.09
		c0.539-0.27,1.127-0.435,1.763-0.494c0.637-0.06,1.27-0.098,1.898-0.112c0.524,0,1.011-0.022,1.46-0.067
		c0.149,0.104,0.247,0.161,0.292,0.169c0.045,0.007,0.12,0.011,0.225,0.011c0.045,0,0.09,0,0.135,0s0.104,0.008,0.18,0.022
		c0.21,0.21,0.412,0.355,0.606,0.438c0.194,0.083,0.404,0.161,0.629,0.236c0.194,0.075,0.386,0.153,0.573,0.236
		c0.187,0.082,0.37,0.19,0.55,0.325l0.202,1.146c0.12,0.165,0.172,0.277,0.157,0.337c0,0.12-0.03,0.225-0.09,0.314l0.045,0.292
		c-0.284,0.06-0.472,0.123-0.562,0.191c-0.09,0.066-0.188,0.153-0.292,0.258c-0.165,0.015-0.322,0.022-0.472,0.022
		c-0.3,0-0.606,0.045-0.921,0.135c-0.449-0.165-0.943-0.247-1.482-0.247c-0.21,0-0.423,0.008-0.64,0.022
		c-0.218,0.015-0.431,0.037-0.641,0.067c-0.225,0.03-0.449,0.057-0.674,0.078c-0.225,0.023-0.449,0.034-0.674,0.034
		c-0.18,0.03-0.307,0.053-0.382,0.067s-0.149,0.037-0.225,0.067c-0.509,0.165-1.06,0.329-1.651,0.494
		c-0.591,0.165-1.187,0.247-1.785,0.247c-0.884,0-1.595-0.225-2.134-0.674c-0.06-0.135-0.104-0.225-0.135-0.27
		S190.492,119.74,190.462,119.68z"/>
</g>
</svg>
